<svg id="Layer_1" data-name="Layer 1" xmlns="http://www.w3.org/2000/svg" viewBox="0 0 595.28 841.89"><defs><style>.cls-1{fill:none;stroke:#9a6eff;stroke-linecap:round;stroke-linejoin:round;stroke-width:18px;}</style></defs><path class="cls-1" d="M232.25,345q0,50.19,0,100.37a71.7,71.7,0,0,0,.94,14.2,36.58,36.58,0,0,0,21.22,25.79c11.71,5,25.68-.27,35-7.88a2.89,2.89,0,0,0,.76-.8,3.14,3.14,0,0,0,.26-1.55c-.23-26.12,0-52.26,0-78.38,0-3.72-.72-7,.5-10.73,3.8-11.62,18.78-8,28-7.81q15.68.38,31.35.3c15.47-.08,32.42-5.68,36.66-22.44a31.81,31.81,0,0,0-2.09-20.28c-3.85-8.84-11.1-18-20.42-21.3-4.61-1.64-9.62-1.64-14.51-1.62q-69.63.29-139.24.49c-21.7.07-60.59,9.1-69.48-19-4.42-14,3.82-29.84,16.47-37.26,13.26-7.78,29.34-7.32,43.86-4"/><path class="cls-1" d="M230.75,289.85V218.6s4.88-28.13,39.38-26.25c20.7,1.12,41.5.88,62.23.75q16.08-.1,32.15-.36c18.66-.28,42.16-4,55.3,12.84a30.51,30.51,0,0,1,5.69,25.23c-3.33,14.38-16,20.71-29.4,23.34-18.4,3.6-37.66,4.42-56.35,4.84q-20.16.47-40.3-.75c-13.17-.8-26.24-2.61-39.45-2.52"/></svg>